# xmcd
#
# Track frame offsets: 
#        150
#        29682
#        48632
#        71410
#        96230
#        116202
#        134537
#        160345
#        180880
#        197160
#
# Disc length: 2951 seconds
#
# Revision: 0
# Processed by: cddbd v1.5.1PL0 Copyright (c) Steve Scherf et al.
# Submitted via: ExactAudioCopy v0.95a5
#
DISCID=910b850a
DTITLE=Watergates - The Scandal
DYEAR=1993
DGENRE=Soul
TTITLE0=Never Gonna Give You Up
TTITLE1=Runaround
TTITLE2=Diamond Child
TTITLE3=Look Into Tomorrow
TTITLE4=100%
TTITLE5=Bourgie, Bourgie
TTITLE6=Don't Go Walkin' (Out That Door)
TTITLE7=Can U Deal With It
TTITLE8=It's Over
TTITLE9=Living As Lovers
EXTD=
EXTT0=
EXTT1=
EXTT2=
EXTT3=
EXTT4=
EXTT5=
EXTT6=
EXTT7=
EXTT8=
EXTT9=
PLAYORDER=
